<svg width="3722" height="633" xmlns="http://www.w3.org/2000/svg" xmlns:xlink="http://www.w3.org/1999/xlink" xml:space="preserve" overflow="hidden"><defs><clipPath id="clip0"><rect x="217" y="118" width="3722" height="633"/></clipPath></defs><g clip-path="url(#clip0)" transform="translate(-217 -118)"><rect x="224" y="276" width="494" height="259" fill="#A9D18E"/><text fill="#FFFFFF" font-family="Calibri,Calibri_MSFontService,sans-serif" font-weight="400" font-size="83" transform="matrix(1 0 0 1 286.491 400)">Direction 1</text><text fill="#FFFFFF" font-family="Calibri,Calibri_MSFontService,sans-serif" font-weight="400" font-size="55" transform="matrix(1 0 0 1 310.256 473)">Cycle duration</text><rect x="718" y="276" width="312" height="259" fill="#70AD47"/><text fill="#FFFFFF" font-family="Calibri,Calibri_MSFontService,sans-serif" font-weight="400" font-size="83" transform="matrix(1 0 0 1 774.477 433)">Pause</text><rect x="1030" y="276" width="493" height="259" fill="#A9D18E"/><text fill="#FFFFFF" font-family="Calibri,Calibri_MSFontService,sans-serif" font-weight="400" font-size="83" transform="matrix(1 0 0 1 1092.31 400)">Direction 2</text><text fill="#FFFFFF" font-family="Calibri,Calibri_MSFontService,sans-serif" font-weight="400" font-size="55" transform="matrix(1 0 0 1 1116.07 473)">Cycle duration</text><rect x="224" y="276" width="1299" height="259" stroke="#385723" stroke-width="13.75" stroke-miterlimit="8" fill="none"/><rect x="224" y="535" width="1299" height="199" stroke="#385723" stroke-width="13.75" stroke-miterlimit="8" fill="#548235"/><text fill="#FFFFFF" font-family="Calibri,Calibri_MSFontService,sans-serif" font-weight="400" font-size="83" transform="matrix(1 0 0 1 729.514 629)">Rotation</text><text fill="#FFFFFF" font-family="Calibri,Calibri_MSFontService,sans-serif" font-weight="400" font-size="55" transform="matrix(1 0 0 1 673.07 702)">Rotation</text><text fill="#FFFFFF" font-family="Calibri,Calibri_MSFontService,sans-serif" font-weight="400" font-size="55" transform="matrix(1 0 0 1 878.175 702)">Duration</text><rect x="2080" y="276" width="493" height="299" fill="#9DC3E6"/><text fill="#FFFFFF" font-family="Calibri,Calibri_MSFontService,sans-serif" font-weight="400" font-size="83" transform="matrix(1 0 0 1 2141.77 420)">Direction 1</text><text fill="#FFFFFF" font-family="Calibri,Calibri_MSFontService,sans-serif" font-weight="400" font-size="55" transform="matrix(1 0 0 1 2165.53 493)">Cycle duration</text><rect x="2573" y="276" width="312" height="299" fill="#5B9BD5"/><text fill="#FFFFFF" font-family="Calibri,Calibri_MSFontService,sans-serif" font-weight="400" font-size="83" transform="matrix(1 0 0 1 2629.75 453)">Pause</text><rect x="2885" y="276" width="494" height="299" fill="#9DC3E6"/><text fill="#FFFFFF" font-family="Calibri,Calibri_MSFontService,sans-serif" font-weight="400" font-size="83" transform="matrix(1 0 0 1 2947.58 420)">Direction 2</text><text fill="#FFFFFF" font-family="Calibri,Calibri_MSFontService,sans-serif" font-weight="400" font-size="55" transform="matrix(1 0 0 1 2971.35 493)">Cycle duration</text><rect x="2080" y="276" width="1299" height="299" stroke="#2F528F" stroke-width="13.75" stroke-miterlimit="8" fill="none"/><rect x="2080" y="535" width="1299" height="199" stroke="#2F528F" stroke-width="13.75" stroke-miterlimit="8" fill="#2E75B6"/><text fill="#FFFFFF" font-family="Calibri,Calibri_MSFontService,sans-serif" font-weight="400" font-size="83" transform="matrix(1 0 0 1 2576.2 629)">Agitation</text><text fill="#FFFFFF" font-family="Calibri,Calibri_MSFontService,sans-serif" font-weight="400" font-size="55" transform="matrix(1 0 0 1 2522.62 702)">Agitation</text><text fill="#FFFFFF" font-family="Calibri,Calibri_MSFontService,sans-serif" font-weight="400" font-size="55" transform="matrix(1 0 0 1 2739.18 702)">Duration</text><rect x="1523" y="276" width="557" height="458" stroke="#C55A11" stroke-width="13.75" stroke-miterlimit="8" fill="#F4B183"/><text fill="#FFFFFF" font-family="Calibri,Calibri_MSFontService,sans-serif" font-weight="400" font-size="83" transform="matrix(1 0 0 1 1703 483)">Pause</text><text fill="#FFFFFF" font-family="Calibri,Calibri_MSFontService,sans-serif" font-weight="400" font-size="83" transform="matrix(1 0 0 1 1581.22 582)">Pre</text><text fill="#FFFFFF" font-family="Calibri,Calibri_MSFontService,sans-serif" font-weight="400" font-size="83" transform="matrix(1 0 0 1 1692.43 582)">-</text><text fill="#FFFFFF" font-family="Calibri,Calibri_MSFontService,sans-serif" font-weight="400" font-size="83" transform="matrix(1 0 0 1 1717.64 582)">Agitation</text><rect x="3375" y="276" width="556" height="458" stroke="#C55A11" stroke-width="13.75" stroke-miterlimit="8" fill="#F4B183"/><text fill="#FFFFFF" font-family="Calibri,Calibri_MSFontService,sans-serif" font-weight="400" font-size="83" transform="matrix(1 0 0 1 3554.61 483)">Pause</text><text fill="#FFFFFF" font-family="Calibri,Calibri_MSFontService,sans-serif" font-weight="400" font-size="83" transform="matrix(1 0 0 1 3416.95 582)">Post</text><text fill="#FFFFFF" font-family="Calibri,Calibri_MSFontService,sans-serif" font-weight="400" font-size="83" transform="matrix(1 0 0 1 3559.91 582)">-</text><text fill="#FFFFFF" font-family="Calibri,Calibri_MSFontService,sans-serif" font-weight="400" font-size="83" transform="matrix(1 0 0 1 3585.11 582)">Agitation</text><rect x="224" y="125" width="3707" height="151" stroke="#0D0D0D" stroke-width="13.75" stroke-miterlimit="8" fill="#3B3838"/><text fill="#FFFFFF" font-family="Calibri,Calibri_MSFontService,sans-serif" font-weight="400" font-size="83" transform="matrix(1 0 0 1 1813.22 228)">Global Duration</text></g></svg>